<?xml version="1.0" encoding="UTF-8"?>
<svg id="Layer_1" data-name="Layer 1" xmlns="http://www.w3.org/2000/svg" xmlns:xlink="http://www.w3.org/1999/xlink" viewBox="0 0 185.02 185.12">
  <defs>
    <style>
      .cls-1 {
        fill: #ef6e35;
      }

      .cls-2 {
        fill: #f18138;
      }

      .cls-3 {
        fill: #facc30;
      }

      .cls-4 {
        fill: url(#linear-gradient);
      }
    </style>
    <linearGradient id="linear-gradient" x1="11.63" y1="12.83" x2="173.14" y2="174.34" gradientUnits="userSpaceOnUse">
      <stop offset="0" stop-color="#f8b541"/>
      <stop offset="1" stop-color="#eb4233"/>
    </linearGradient>
  </defs>
  <path class="cls-4" d="M184.49,38.34c-.35-5.33-2.04-10.57-4.32-15.24-5.78-12.08-17.75-20.83-31.2-22.32-2-.65-4.18-.43-6.24-.48C114.92.11,37.2-1.03,26.65,2.89,12.01,8.35,1.7,22.19.21,37.64c.41,30.09-.81,60.3.21,90.33.11,15.4-2.91,30.07,7.92,42.72,6.43,7.83,15.67,13.3,26.03,13.93,18.27,1.11,116.17-.01,116.17-.01,17.72-1.45,32.3-15.8,33.93-33.51.07-18.03,1.19-94.78.03-112.77ZM142.87,50.93c1.57.2,4.31.47,5.39,1.69.61.45,2.17,1.62,1.81,2.4l-22.31,22.34c-.2.2-.46.2-.72.24-2.18.29-18.72.24-20.9-.01-.33-.04-.42.13-.35-.35l10.31-26.17,26.77-.13ZM41.58,50.94c7.56-.58,39.33,0,46.81-.01l.82.37-25.44,32.42c-.28.22-.39.03-.61-.12-9.77-9.28-19.18-19.52-28.91-28.93,1.94-2.36,4.28-3.48,7.32-3.72ZM33.89,129.41c-.47.08-.29-.07-.41-.3-.73-1.47-1.48-3.71-1.63-5.34-.65-7.28-.18-50.53,0-62.52.13-.15.61.14.72.36,8.64,8.98,18.72,18.13,27.09,27.16.1.58-6.28,8.1-7.13,9.37-1.52,2.27-2.2,4.21-.58,6.74,1.01,1.58,1.96,1.6,3.36,2.41.2.12.4-.06.3.41l-21.72,21.72ZM42.29,133.98c-.94-.23-4.28-.2-2.75-1.57,8.1-8.47,17.05-16.4,24.84-25.08,0,0,14.28,0,14.28,0l-11.28,26.64h-25.09ZM66.4,163.12c-2.46,1.93-5.8.43-5.65-2.75l24.38-57.36h-29.28c-.06,0-.25-.92-.25-1.09-.02-1.1,1.05-2.16,1.71-3.04,6.86-9.27,14.46-18.16,21.58-27.26,12.86-16.44,25.53-32.94,38.42-49.37,2.12-2.63,5.47-.75,4.39,2.47l-22.04,56.2-.12.96h28.32s.33-.04.48.17c.68.96.6,1.53,0,2.53-20.66,26.15-41.46,52.21-61.93,78.52ZM144.18,133.74c-.59.12-1.19.24-1.79.25h-47.41s22.56-29.05,22.56-29.05c.5-.34,2.25,2.13,2.63,2.52,8.53,8.59,17.2,17.03,25.68,25.67-.42.52-1.1.49-1.68.6ZM150.99,129.16c-.2.06-.4.02-.57-.1-3.67-3.11-28.53-29.23-28.53-29.23l10.62-13.64c.89-1.59.84-3.58.26-5.26,5.98-6.1,19.02-19.81,20.05-19.68.01,20.84-.01,41.68,0,62.53-.07.94-1.06,5.15-1.84,5.38Z"/>
  <g>
    <path class="cls-3" d="M85.14,103.02h-29.28c-.06,0-.25-.92-.25-1.09-.02-1.1,1.05-2.16,1.71-3.04,6.86-9.27,47.11-60.19,59.99-76.62,2.12-2.63,5.47-.75,4.39,2.47l-22.04,56.2-.12.96h28.32s.33-.04.48.17c.68.96.6,1.53,0,2.53-20.66,26.15-41.46,52.21-61.93,78.52-2.46,1.93-5.8.43-5.65-2.75l24.38-57.36Z"/>
    <g>
      <path class="cls-1" d="M112.74,77.58h.24c-.08,0-.15,0-.24,0Z"/>
      <path class="cls-2" d="M148.26,52.62l-.24-.24c.09.06.15.18.24.24Z"/>
    </g>
  </g>
</svg>